<svg xmlns="http://www.w3.org/2000/svg" width="25.221" height="22.391" viewBox="0 0 25.221 22.391"><defs><style>.a{fill:none;stroke:#fff;stroke-linecap:round;stroke-linejoin:round;stroke-width:1.2px;fill-rule:evenodd;}</style></defs><path class="a" d="M70.242,70a.241.241,0,0,0-.242.23V75.7a.186.186,0,0,0,.075.148.229.229,0,0,0,.167.058H93.779a.243.243,0,0,0,.167-.058.186.186,0,0,0,.075-.148V70.23a.231.231,0,0,0-.075-.164A.2.2,0,0,0,93.779,70Zm1.176,5.924a.179.179,0,0,0-.133.058.21.21,0,0,0-.058.123V91.01a.158.158,0,0,0,.058.123.179.179,0,0,0,.133.058H92.612a.179.179,0,0,0,.133-.058.21.21,0,0,0,.058-.123V76.105a.158.158,0,0,0-.058-.123.179.179,0,0,0-.133-.058Zm7.381,3.55h6.422a1.2,1.2,0,0,1,.876.353,1.176,1.176,0,0,1,.367.871,1.258,1.258,0,0,1-1.243,1.249H78.8a1.182,1.182,0,0,1-.876-.37,1.221,1.221,0,0,1-.367-.879,1.17,1.17,0,0,1,.367-.871A1.2,1.2,0,0,1,78.8,79.474Z" transform="translate(-69.4 -69.4)"/></svg>